<svg width="1326" height="304" viewBox="0 0 1326 304" fill="none" xmlns="http://www.w3.org/2000/svg">
<g filter="url(#filter0_d_13_8)">
<path d="M64.677 78.56L119.973 46.56C125.776 43.1467 130.896 42.72 135.333 45.28C139.941 47.84 142.245 52.5333 142.245 59.36V84.96L119.973 97.76V72.16L64.677 104.16V252.64L119.973 220.64V195.04L142.245 182.24V207.84C142.245 212.277 141.136 217.056 138.917 222.176C136.869 227.296 134.138 232.075 130.725 236.512C127.482 240.779 123.898 244.021 119.973 246.24L64.677 278.24C58.7037 281.653 53.4983 282.08 49.061 279.52C44.6237 276.96 42.405 272.267 42.405 265.44V116.96C42.405 112.352 43.429 107.573 45.477 102.624C47.525 97.504 50.2557 92.8107 53.669 88.544C57.0823 84.1067 60.7517 80.7787 64.677 78.56ZM142.245 182.24L119.973 195.04L97.701 182.24L119.973 169.44L142.245 182.24ZM119.973 195.04V220.64L97.701 207.84V182.24L119.973 195.04ZM119.973 220.64L64.677 252.64L42.405 239.84L97.701 207.84L119.973 220.64ZM119.973 72.16V97.76L97.701 84.96V59.36L119.973 72.16ZM135.589 45.28C130.981 42.72 125.776 43.1467 119.973 46.56L64.677 78.56C60.7517 80.7787 57.0823 84.1067 53.669 88.544C50.2557 92.8107 47.525 97.504 45.477 102.624C43.429 107.573 42.405 112.352 42.405 116.96V265.44C42.405 272.267 44.6237 276.96 49.061 279.52L26.789 266.72C22.3517 264.16 20.133 259.467 20.133 252.64V104.16C20.133 99.552 21.157 94.7733 23.205 89.824C25.253 84.704 27.9837 80.0107 31.397 75.744C34.8103 71.3067 38.4797 67.9787 42.405 65.76L97.701 33.76C103.674 30.3467 108.88 29.92 113.317 32.48L135.589 45.28ZM208.927 88.8V165.6L264.223 133.6V56.8L286.495 44V223.2L264.223 236V159.2L208.927 191.2V268L186.655 280.8V101.6L208.927 88.8ZM264.223 159.2V236L241.951 223.2V146.4L264.223 159.2ZM286.495 44L264.223 56.8L241.951 44L264.223 31.2L286.495 44ZM264.223 56.8V133.6L241.951 120.8V44L264.223 56.8ZM264.223 133.6L208.927 165.6L186.655 152.8L241.951 120.8L264.223 133.6ZM208.927 88.8L186.655 101.6L164.383 88.8L186.655 76L208.927 88.8ZM186.655 101.6V280.8L164.383 268V88.8L186.655 101.6ZM353.177 78.56L408.473 46.56C414.276 43.1467 419.396 42.72 423.833 45.28C428.441 47.84 430.745 52.5333 430.745 59.36V223.2L408.473 236V184.8L353.177 216.8V268L330.905 280.8V116.96C330.905 112.352 331.929 107.573 333.977 102.624C336.025 97.504 338.756 92.8107 342.169 88.544C345.582 84.1067 349.252 80.7787 353.177 78.56ZM408.473 159.2V72.16L353.177 104.16V191.2L408.473 159.2ZM408.473 184.8V236L386.201 223.2V172L408.473 184.8ZM408.473 72.16V159.2L386.201 146.4V59.36L408.473 72.16ZM408.473 159.2L353.177 191.2L330.905 178.4L386.201 146.4L408.473 159.2ZM424.089 45.28C419.481 42.72 414.276 43.1467 408.473 46.56L353.177 78.56C349.252 80.7787 345.582 84.1067 342.169 88.544C338.756 92.8107 336.025 97.504 333.977 102.624C331.929 107.573 330.905 112.352 330.905 116.96V280.8L308.633 268V104.16C308.633 99.552 309.657 94.7733 311.705 89.824C313.753 84.704 316.484 80.0107 319.897 75.744C323.31 71.3067 326.98 67.9787 330.905 65.76L386.201 33.76C392.174 30.3467 397.38 29.92 401.817 32.48L424.089 45.28ZM515.091 232.16V104.16L475.155 127.2V101.6L577.043 42.72V68.32L537.107 91.36V219.36L577.043 196.32V221.92L475.155 280.8V255.2L515.091 232.16ZM515.091 232.16L475.155 255.2L452.883 242.4L492.819 219.36L515.091 232.16ZM475.155 255.2V280.8L452.883 268V242.4L475.155 255.2ZM577.043 196.32L537.107 219.36L515.091 206.56L555.027 183.52L577.043 196.32ZM515.091 104.16V232.16L492.819 219.36V91.36L515.091 104.16ZM577.043 42.72L475.155 101.6L452.883 88.8L555.027 29.92L577.043 42.72ZM475.155 101.6V127.2L452.883 114.4V88.8L475.155 101.6ZM676.951 69.6C682.924 66.1867 688.13 65.76 692.567 68.32C697.004 70.88 699.223 75.5733 699.223 82.4V210.4L732.503 191.2V37.6L754.775 24.8V204L699.223 236C693.42 239.413 688.215 239.84 683.607 237.28C679.17 234.72 676.951 230.027 676.951 223.2V95.2L643.927 114.4V268L621.655 280.8V101.6L676.951 69.6ZM754.775 24.8L732.503 37.6L710.231 24.8L732.503 12L754.775 24.8ZM732.503 37.6V191.2L710.231 178.4V24.8L732.503 37.6ZM732.503 191.2L699.223 210.4L676.951 197.6L710.231 178.4L732.503 191.2ZM676.951 95.2V223.2C676.951 230.027 679.17 234.72 683.607 237.28L661.591 224.48C657.154 221.92 654.935 217.227 654.935 210.4V82.4L676.951 95.2ZM692.567 68.32C688.13 65.76 682.924 66.1867 676.951 69.6L621.655 101.6L599.383 88.8L654.935 56.8C660.738 53.3867 665.858 52.96 670.295 55.52L692.567 68.32ZM621.655 101.6V280.8L599.383 268V88.8L621.655 101.6ZM821.427 252.64L876.723 220.64V246.24L821.427 278.24C815.454 281.653 810.248 282.08 805.811 279.52C801.374 276.96 799.155 272.267 799.155 265.44V63.2L821.427 50.4V252.64ZM821.427 50.4L799.155 63.2L776.883 50.4L799.155 37.6L821.427 50.4ZM876.723 220.64L821.427 252.64L799.155 239.84L854.451 207.84L876.723 220.64ZM799.155 63.2V265.44C799.155 272.267 801.374 276.96 805.811 279.52L783.539 266.72C779.102 264.16 776.883 259.467 776.883 252.64V50.4L799.155 63.2ZM960.841 232.16V104.16L920.905 127.2V101.6L1022.79 42.72V68.32L982.857 91.36V219.36L1022.79 196.32V221.92L920.905 280.8V255.2L960.841 232.16ZM960.841 232.16L920.905 255.2L898.633 242.4L938.569 219.36L960.841 232.16ZM920.905 255.2V280.8L898.633 268V242.4L920.905 255.2ZM1022.79 196.32L982.857 219.36L960.841 206.56L1000.78 183.52L1022.79 196.32ZM960.841 104.16V232.16L938.569 219.36V91.36L960.841 104.16ZM1022.79 42.72L920.905 101.6L898.633 88.8L1000.78 29.92L1022.79 42.72ZM920.905 101.6V127.2L898.633 114.4V88.8L920.905 101.6ZM1089.68 191.2C1083.7 194.613 1078.5 195.04 1074.06 192.48C1069.62 189.92 1067.41 185.227 1067.41 178.4V116.96C1067.41 112.352 1068.43 107.573 1070.48 102.624C1072.53 97.504 1075.26 92.8107 1078.67 88.544C1082.08 84.1067 1085.75 80.7787 1089.68 78.56L1144.97 46.56C1150.78 43.1467 1155.9 42.72 1160.33 45.28C1164.94 47.84 1167.25 52.5333 1167.25 59.36V95.2L1144.97 108V72.16L1089.68 104.16V165.6L1144.97 133.6C1150.78 130.187 1155.9 129.76 1160.33 132.32C1164.94 134.88 1167.25 139.573 1167.25 146.4V207.84C1167.25 212.277 1166.14 217.056 1163.92 222.176C1161.87 227.296 1159.14 232.075 1155.73 236.512C1152.48 240.779 1148.9 244.021 1144.97 246.24L1089.68 278.24C1083.7 281.653 1078.5 282.08 1074.06 279.52C1069.62 276.96 1067.41 272.267 1067.41 265.44V239.84L1089.68 227.04V252.64L1144.97 220.64V159.2L1089.68 191.2ZM1144.97 159.2V220.64L1122.7 207.84V146.4L1144.97 159.2ZM1144.97 220.64L1089.68 252.64L1067.41 239.84L1122.7 207.84L1144.97 220.64ZM1144.97 72.16V108L1122.7 95.2V59.36L1144.97 72.16ZM1089.68 227.04L1067.41 239.84L1045.13 227.04L1067.41 214.24L1089.68 227.04ZM1067.41 239.84V265.44C1067.41 272.267 1069.62 276.96 1074.06 279.52L1051.79 266.72C1047.35 264.16 1045.13 259.467 1045.13 252.64V227.04L1067.41 239.84ZM1160.59 132.32C1155.98 129.76 1150.78 130.187 1144.97 133.6L1089.68 165.6L1067.41 152.8L1122.7 120.8C1128.67 117.387 1133.88 116.96 1138.32 119.52L1160.59 132.32ZM1160.59 45.28C1155.98 42.72 1150.78 43.1467 1144.97 46.56L1089.68 78.56C1085.75 80.7787 1082.08 84.1067 1078.67 88.544C1075.26 92.8107 1072.53 97.504 1070.48 102.624C1068.43 107.573 1067.41 112.352 1067.41 116.96V178.4C1067.41 185.227 1069.62 189.92 1074.06 192.48L1051.79 179.68C1047.35 177.12 1045.13 172.427 1045.13 165.6V104.16C1045.13 99.552 1046.16 94.7733 1048.21 89.824C1050.25 84.704 1052.98 80.0107 1056.4 75.744C1059.81 71.3067 1063.48 67.9787 1067.41 65.76L1122.7 33.76C1128.67 30.3467 1133.88 29.92 1138.32 32.48L1160.59 45.28ZM1251.59 104.16L1211.66 127.2V101.6L1313.54 42.72V68.32L1273.61 91.36V268L1251.59 280.8V104.16ZM1251.59 104.16V280.8L1229.32 268V91.36L1251.59 104.16ZM1313.54 42.72L1211.66 101.6L1189.38 88.8L1291.53 29.92L1313.54 42.72ZM1211.66 101.6V127.2L1189.38 114.4V88.8L1211.66 101.6Z" fill="white"/>
<path d="M64.677 78.56L65.1691 79.4306L65.1779 79.4255L64.677 78.56ZM119.973 46.56L120.474 47.4255L120.48 47.4219L119.973 46.56ZM135.333 45.28L134.833 46.1462C134.838 46.1489 134.843 46.1515 134.847 46.1541L135.333 45.28ZM142.245 84.96L142.743 85.827C143.054 85.6486 143.245 85.318 143.245 84.96H142.245ZM119.973 97.76H118.973C118.973 98.1169 119.163 98.4468 119.472 98.6255C119.781 98.8043 120.162 98.8049 120.471 98.627L119.973 97.76ZM119.973 72.16H120.973C120.973 71.8025 120.782 71.4723 120.473 71.2937C120.163 71.1151 119.782 71.1154 119.472 71.2945L119.973 72.16ZM64.677 104.16L64.1761 103.294C63.8672 103.473 63.677 103.803 63.677 104.16H64.677ZM64.677 252.64H63.677C63.677 252.997 63.8678 253.328 64.1774 253.506C64.4871 253.685 64.8685 253.685 65.1779 253.506L64.677 252.64ZM119.973 220.64L120.474 221.506C120.783 221.327 120.973 220.997 120.973 220.64H119.973ZM119.973 195.04L119.475 194.173C119.164 194.351 118.973 194.682 118.973 195.04H119.973ZM142.245 182.24H143.245C143.245 181.883 143.055 181.553 142.746 181.374C142.437 181.196 142.056 181.195 141.747 181.373L142.245 182.24ZM138.917 222.176L137.999 221.778C137.996 221.787 137.992 221.796 137.989 221.805L138.917 222.176ZM130.725 236.512L129.932 235.902L129.929 235.907L130.725 236.512ZM119.973 246.24L119.481 245.369L119.472 245.374L119.973 246.24ZM64.677 278.24L65.1731 279.108L65.1779 279.106L64.677 278.24ZM49.061 279.52L48.5613 280.386L48.5613 280.386L49.061 279.52ZM45.477 102.624L46.4011 103.006L46.4055 102.995L45.477 102.624ZM53.669 88.544L54.4499 89.1687C54.4538 89.1637 54.4578 89.1587 54.4616 89.1537L53.669 88.544ZM142.245 182.24L142.743 183.107C143.054 182.929 143.245 182.598 143.245 182.24C143.245 181.882 143.054 181.551 142.743 181.373L142.245 182.24ZM119.973 195.04L119.475 195.907C119.783 196.084 120.163 196.084 120.471 195.907L119.973 195.04ZM97.701 182.24L97.2027 181.373C96.8924 181.551 96.701 181.882 96.701 182.24C96.701 182.598 96.8924 182.929 97.2027 183.107L97.701 182.24ZM119.973 169.44L120.471 168.573C120.163 168.396 119.783 168.396 119.475 168.573L119.973 169.44ZM119.973 195.04H120.973C120.973 194.682 120.782 194.351 120.471 194.173L119.973 195.04ZM119.973 220.64L119.475 221.507C119.784 221.685 120.165 221.684 120.474 221.506C120.783 221.327 120.973 220.997 120.973 220.64H119.973ZM97.701 207.84H96.701C96.701 208.198 96.8924 208.529 97.2027 208.707L97.701 207.84ZM97.701 182.24L98.1993 181.373C97.8898 181.195 97.5091 181.196 97.2001 181.374C96.8912 181.553 96.701 181.883 96.701 182.24H97.701ZM119.973 220.64L120.474 221.506C120.783 221.326 120.974 220.996 120.973 220.639C120.972 220.281 120.781 219.951 120.471 219.773L119.973 220.64ZM64.677 252.64L64.1787 253.507C64.4882 253.685 64.869 253.684 65.1779 253.506L64.677 252.64ZM42.405 239.84L41.9041 238.974C41.5948 239.154 41.4045 239.484 41.405 239.841C41.4055 240.199 41.5968 240.529 41.9067 240.707L42.405 239.84ZM97.701 207.84L98.1993 206.973C97.8898 206.795 97.509 206.796 97.2001 206.974L97.701 207.84ZM119.973 72.16H120.973C120.973 71.802 120.782 71.4713 120.471 71.293L119.973 72.16ZM119.973 97.76L119.475 98.627C119.784 98.8049 120.165 98.8043 120.474 98.6255C120.783 98.4468 120.973 98.1169 120.973 97.76H119.973ZM97.701 84.96H96.701C96.701 85.318 96.8924 85.6486 97.2027 85.827L97.701 84.96ZM97.701 59.36L98.1993 58.493C97.8898 58.3151 97.5091 58.3157 97.2001 58.4945C96.8912 58.6732 96.701 59.0031 96.701 59.36H97.701ZM135.589 45.28L135.103 46.1541C135.584 46.421 136.189 46.2503 136.46 45.772C136.73 45.2936 136.564 44.6868 136.087 44.413L135.589 45.28ZM119.973 46.56L120.474 47.4255L120.48 47.4219L119.973 46.56ZM64.677 78.56L65.1691 79.4306L65.1779 79.4255L64.677 78.56ZM53.669 88.544L54.4499 89.1687C54.4538 89.1637 54.4578 89.1587 54.4616 89.1537L53.669 88.544ZM45.477 102.624L46.4011 103.006L46.4055 102.995L45.477 102.624ZM49.061 279.52L48.5627 280.387C49.0413 280.662 49.6522 280.497 49.9276 280.019C50.203 279.541 50.0388 278.93 49.5607 278.654L49.061 279.52ZM26.789 266.72L26.2893 267.586L26.2907 267.587L26.789 266.72ZM23.205 89.824L24.1291 90.2064L24.1335 90.1954L23.205 89.824ZM31.397 75.744L32.1779 76.3687C32.1818 76.3637 32.1858 76.3587 32.1896 76.3537L31.397 75.744ZM42.405 65.76L42.8971 66.6306L42.9059 66.6255L42.405 65.76ZM97.701 33.76L97.2049 32.8917L97.2001 32.8945L97.701 33.76ZM113.317 32.48L112.817 33.3462L112.819 33.347L113.317 32.48ZM65.1779 79.4255L120.474 47.4255L119.472 45.6945L64.1761 77.6945L65.1779 79.4255ZM120.48 47.4219C126.084 44.1253 130.806 43.8228 134.833 46.1462L135.833 44.4138C130.985 41.6172 125.467 42.168 119.466 45.698L120.48 47.4219ZM134.847 46.1541C139.042 48.4847 141.245 52.7723 141.245 59.36H143.245C143.245 52.2943 140.84 47.1952 135.819 44.4058L134.847 46.1541ZM141.245 59.36V84.96H143.245V59.36H141.245ZM141.747 84.093L119.475 96.893L120.471 98.627L142.743 85.827L141.747 84.093ZM120.973 97.76V72.16H118.973V97.76H120.973ZM119.472 71.2945L64.1761 103.294L65.1779 105.026L120.474 73.0255L119.472 71.2945ZM63.677 104.16V252.64H65.677V104.16H63.677ZM65.1779 253.506L120.474 221.506L119.472 219.774L64.1761 251.774L65.1779 253.506ZM120.973 220.64V195.04H118.973V220.64H120.973ZM120.471 195.907L142.743 183.107L141.747 181.373L119.475 194.173L120.471 195.907ZM141.245 182.24V207.84H143.245V182.24H141.245ZM141.245 207.84C141.245 212.11 140.177 216.753 137.999 221.778L139.835 222.574C142.094 217.359 143.245 212.444 143.245 207.84H141.245ZM137.989 221.805C135.975 226.838 133.291 231.537 129.932 235.902L131.518 237.122C134.986 232.613 137.763 227.754 139.845 222.547L137.989 221.805ZM129.929 235.907C126.753 240.085 123.268 243.229 119.481 245.369L120.465 247.111C124.529 244.814 128.211 241.472 131.521 237.117L129.929 235.907ZM119.472 245.374L64.1761 277.374L65.1779 279.106L120.474 247.106L119.472 245.374ZM64.1809 277.372C58.3963 280.677 53.5867 280.976 49.5607 278.654L48.5613 280.386C53.41 283.184 59.0111 282.629 65.1731 279.108L64.1809 277.372ZM49.5607 278.654C45.5346 276.331 43.405 272.045 43.405 265.44H41.405C41.405 272.489 43.7127 277.589 48.5613 280.386L49.5607 278.654ZM43.405 265.44V116.96H41.405V265.44H43.405ZM43.405 116.96C43.405 112.503 44.3951 107.854 46.401 103.006L44.553 102.242C42.4629 107.293 41.405 112.201 41.405 116.96H43.405ZM46.4055 102.995C48.4173 97.9658 51.0985 93.3579 54.4499 89.1687L52.8881 87.9193C49.4128 92.2634 46.6327 97.0422 44.5485 102.253L46.4055 102.995ZM54.4616 89.1537C57.8124 84.7977 61.3849 81.5694 65.1691 79.4306L64.1849 77.6894C60.1184 79.9879 56.3523 83.4156 52.8764 87.9343L54.4616 89.1537ZM141.747 181.373L119.475 194.173L120.471 195.907L142.743 183.107L141.747 181.373ZM120.471 194.173L98.1993 181.373L97.2027 183.107L119.475 195.907L120.471 194.173ZM98.1993 183.107L120.471 170.307L119.475 168.573L97.2027 181.373L98.1993 183.107ZM119.475 170.307L141.747 183.107L142.743 181.373L120.471 168.573L119.475 170.307ZM118.973 195.04V220.64H120.973V195.04H118.973ZM120.471 219.773L98.1993 206.973L97.2027 208.707L119.475 221.507L120.471 219.773ZM98.701 207.84V182.24H96.701V207.84H98.701ZM97.2027 183.107L119.475 195.907L120.471 194.173L98.1993 181.373L97.2027 183.107ZM119.472 219.774L64.1761 251.774L65.1779 253.506L120.474 221.506L119.472 219.774ZM65.1753 251.773L42.9033 238.973L41.9067 240.707L64.1787 253.507L65.1753 251.773ZM42.9059 240.706L98.2019 208.706L97.2001 206.974L41.9041 238.974L42.9059 240.706ZM97.2027 208.707L119.475 221.507L120.471 219.773L98.1993 206.973L97.2027 208.707ZM118.973 72.16V97.76H120.973V72.16H118.973ZM120.471 96.893L98.1993 84.093L97.2027 85.827L119.475 98.627L120.471 96.893ZM98.701 84.96V59.36H96.701V84.96H98.701ZM97.2027 60.227L119.475 73.027L120.471 71.293L98.1993 58.493L97.2027 60.227ZM136.075 44.4058C131.069 41.6251 125.477 42.1624 119.466 45.698L120.48 47.4219C126.075 44.1309 130.893 43.8148 135.103 46.1541L136.075 44.4058ZM119.472 45.6945L64.1761 77.6945L65.1779 79.4255L120.474 47.4255L119.472 45.6945ZM64.1849 77.6894C60.1184 79.9879 56.3523 83.4156 52.8764 87.9343L54.4616 89.1537C57.8124 84.7977 61.3849 81.5694 65.1691 79.4306L64.1849 77.6894ZM52.8881 87.9193C49.4128 92.2634 46.6327 97.0422 44.5485 102.253L46.4055 102.995C48.4173 97.9658 51.0985 93.3579 54.4499 89.1687L52.8881 87.9193ZM44.553 102.242C42.4629 107.293 41.405 112.201 41.405 116.96H43.405C43.405 112.503 44.3951 107.854 46.401 103.006L44.553 102.242ZM41.405 116.96V265.44H43.405V116.96H41.405ZM41.405 265.44C41.405 272.489 43.7127 277.589 48.5613 280.386L49.5607 278.654C45.5346 276.331 43.405 272.045 43.405 265.44H41.405ZM49.5593 278.653L27.2873 265.853L26.2907 267.587L48.5627 280.387L49.5593 278.653ZM27.2887 265.854C23.2626 263.531 21.133 259.245 21.133 252.64H19.133C19.133 259.689 21.4407 264.789 26.2893 267.586L27.2887 265.854ZM21.133 252.64V104.16H19.133V252.64H21.133ZM21.133 104.16C21.133 99.7027 22.1231 95.0539 24.129 90.2063L22.281 89.4416C20.1909 94.4928 19.133 99.4013 19.133 104.16H21.133ZM24.1335 90.1954C26.1453 85.1658 28.8265 80.5579 32.1779 76.3687L30.6161 75.1193C27.1408 79.4634 24.3607 84.2422 22.2765 89.4526L24.1335 90.1954ZM32.1896 76.3537C35.5404 71.9977 39.1129 68.7694 42.8971 66.6306L41.9129 64.8894C37.8464 67.1879 34.0803 70.6156 30.6044 75.1343L32.1896 76.3537ZM42.9059 66.6255L98.2019 34.6255L97.2001 32.8945L41.9041 64.8945L42.9059 66.6255ZM98.1971 34.6282C103.982 31.3228 108.791 31.0235 112.817 33.3462L113.817 31.6138C108.968 28.8165 103.367 29.3706 97.2049 32.8918L98.1971 34.6282ZM112.819 33.347L135.091 46.147L136.087 44.413L113.815 31.613L112.819 33.347ZM208.927 88.8H209.927C209.927 88.4431 209.737 88.1132 209.428 87.9345C209.119 87.7557 208.738 87.7551 208.429 87.933L208.927 88.8ZM208.927 165.6H207.927C207.927 165.957 208.118 166.288 208.427 166.466C208.737 166.645 209.119 166.645 209.428 166.466L208.927 165.6ZM264.223 133.6L264.724 134.466C265.033 134.287 265.223 133.957 265.223 133.6H264.223ZM264.223 56.8L263.725 55.933C263.414 56.1113 263.223 56.442 263.223 56.8H264.223ZM286.495 44H287.495C287.495 43.6431 287.305 43.3132 286.996 43.1345C286.687 42.9557 286.306 42.9551 285.997 43.133L286.495 44ZM286.495 223.2L286.993 224.067C287.304 223.889 287.495 223.558 287.495 223.2H286.495ZM264.223 236H263.223C263.223 236.357 263.413 236.687 263.722 236.866C264.031 237.044 264.412 237.045 264.721 236.867L264.223 236ZM264.223 159.2H265.223C265.223 158.843 265.032 158.512 264.723 158.334C264.413 158.155 264.032 158.155 263.722 158.334L264.223 159.2ZM208.927 191.2L208.426 190.334C208.117 190.513 207.927 190.843 207.927 191.2H208.927ZM208.927 268L209.425 268.867C209.736 268.689 209.927 268.358 209.927 268H208.927ZM186.655 280.8H185.655C185.655 281.157 185.845 281.487 186.154 281.666C186.463 281.844 186.844 281.845 187.153 281.667L186.655 280.8ZM186.655 101.6L186.157 100.733C185.846 100.911 185.655 101.242 185.655 101.6H186.655ZM264.223 159.2H265.223C265.223 158.842 265.032 158.511 264.721 158.333L264.223 159.2ZM264.223 236L263.725 236.867C264.034 237.045 264.415 237.044 264.724 236.866C265.033 236.687 265.223 236.357 265.223 236H264.223ZM241.951 223.2H240.951C240.951 223.558 241.142 223.889 241.453 224.067L241.951 223.2ZM241.951 146.4L242.449 145.533C242.14 145.355 241.759 145.356 241.45 145.534C241.141 145.713 240.951 146.043 240.951 146.4H241.951ZM286.495 44L286.993 44.867C287.304 44.6886 287.495 44.358 287.495 44C287.495 43.642 287.304 43.3113 286.993 43.133L286.495 44ZM264.223 56.8L263.725 57.667C264.033 57.8443 264.413 57.8443 264.721 57.667L264.223 56.8ZM241.951 44L241.453 43.133C241.142 43.3113 240.951 43.642 240.951 44C240.951 44.358 241.142 44.6886 241.453 44.867L241.951 44ZM264.223 31.2L264.721 30.333C264.413 30.1557 264.033 30.1557 263.725 30.333L264.223 31.2ZM264.223 56.8H265.223C265.223 56.442 265.032 56.1113 264.721 55.933L264.223 56.8ZM264.223 133.6L263.725 134.467C264.034 134.645 264.415 134.644 264.724 134.466C265.033 134.287 265.223 133.957 265.223 133.6H264.223ZM241.951 120.8H240.951C240.951 121.158 241.142 121.489 241.453 121.667L241.951 120.8ZM241.951 44L242.449 43.133C242.14 42.9551 241.759 42.9557 241.45 43.1345C241.141 43.3132 240.951 43.6431 240.951 44H241.951ZM264.223 133.6L264.724 134.466C265.033 134.286 265.224 133.956 265.223 133.598C265.222 133.241 265.031 132.911 264.721 132.733L264.223 133.6ZM208.927 165.6L208.429 166.467C208.738 166.645 209.119 166.644 209.428 166.466L208.927 165.6ZM186.655 152.8L186.154 151.934C185.845 152.114 185.654 152.444 185.655 152.801C185.656 153.159 185.847 153.489 186.157 153.667L186.655 152.8ZM241.951 120.8L242.449 119.933C242.14 119.755 241.759 119.756 241.45 119.934L241.951 120.8ZM208.927 88.8L209.425 89.667C209.736 89.4886 209.927 89.158 209.927 88.8C209.927 88.442 209.736 88.1113 209.425 87.933L208.927 88.8ZM186.655 101.6L186.157 102.467C186.465 102.644 186.845 102.644 187.153 102.467L186.655 101.6ZM164.383 88.8L163.885 87.933C163.574 88.1113 163.383 88.442 163.383 88.8C163.383 89.158 163.574 89.4886 163.885 89.667L164.383 88.8ZM186.655 76L187.153 75.133C186.845 74.9557 186.465 74.9557 186.157 75.133L186.655 76ZM186.655 101.6H187.655C187.655 101.242 187.464 100.911 187.153 100.733L186.655 101.6ZM186.655 280.8L186.157 281.667C186.466 281.845 186.847 281.844 187.156 281.666C187.465 281.487 187.655 281.157 187.655 280.8H186.655ZM164.383 268H163.383C163.383 268.358 163.574 268.689 163.885 268.867L164.383 268ZM164.383 88.8L164.881 87.933C164.572 87.7551 164.191 87.7557 163.882 87.9345C163.573 88.1132 163.383 88.4431 163.383 88.8H164.383ZM207.927 88.8V165.6H209.927V88.8H207.927ZM209.428 166.466L264.724 134.466L263.722 132.734L208.426 164.734L209.428 166.466ZM265.223 133.6V56.8H263.223V133.6H265.223ZM264.721 57.667L286.993 44.867L285.997 43.133L263.725 55.933L264.721 57.667ZM285.495 44V223.2H287.495V44H285.495ZM285.997 222.333L263.725 235.133L264.721 236.867L286.993 224.067L285.997 222.333ZM265.223 236V159.2H263.223V236H265.223ZM263.722 158.334L208.426 190.334L209.428 192.066L264.724 160.066L263.722 158.334ZM207.927 191.2V268H209.927V191.2H207.927ZM208.429 267.133L186.157 279.933L187.153 281.667L209.425 268.867L208.429 267.133ZM187.655 280.8V101.6H185.655V280.8H187.655ZM187.153 102.467L209.425 89.667L208.429 87.933L186.157 100.733L187.153 102.467ZM263.223 159.2V236H265.223V159.2H263.223ZM264.721 235.133L242.449 222.333L241.453 224.067L263.725 236.867L264.721 235.133ZM242.951 223.2V146.4H240.951V223.2H242.951ZM241.453 147.267L263.725 160.067L264.721 158.333L242.449 145.533L241.453 147.267ZM285.997 43.133L263.725 55.933L264.721 57.667L286.993 44.867L285.997 43.133ZM264.721 55.933L242.449 43.133L241.453 44.867L263.725 57.667L264.721 55.933ZM242.449 44.867L264.721 32.067L263.725 30.333L241.453 43.133L242.449 44.867ZM263.725 32.067L285.997 44.867L286.993 43.133L264.721 30.333L263.725 32.067ZM263.223 56.8V133.6H265.223V56.8H263.223ZM264.721 132.733L242.449 119.933L241.453 121.667L263.725 134.467L264.721 132.733ZM242.951 120.8V44H240.951V120.8H242.951ZM241.453 44.867L263.725 57.667L264.721 55.933L242.449 43.133L241.453 44.867ZM263.722 132.734L208.426 164.734L209.428 166.466L264.724 134.466L263.722 132.734ZM209.425 164.733L187.153 151.933L186.157 153.667L208.429 166.467L209.425 164.733ZM187.156 153.666L242.452 121.666L241.45 119.934L186.154 151.934L187.156 153.666ZM241.453 121.667L263.725 134.467L264.721 132.733L242.449 119.933L241.453 121.667ZM208.429 87.933L186.157 100.733L187.153 102.467L209.425 89.667L208.429 87.933ZM187.153 100.733L164.881 87.933L163.885 89.667L186.157 102.467L187.153 100.733ZM164.881 89.667L187.153 76.867L186.157 75.133L163.885 87.933L164.881 89.667ZM186.157 76.867L208.429 89.667L209.425 87.933L187.153 75.133L186.157 76.867ZM185.655 101.6V280.8H187.655V101.6H185.655ZM187.153 279.933L164.881 267.133L163.885 268.867L186.157 281.667L187.153 279.933ZM165.383 268V88.8H163.383V268H165.383ZM163.885 89.667L186.157 102.467L187.153 100.733L164.881 87.933L163.885 89.667ZM353.177 78.56L353.669 79.4306L353.678 79.4255L353.177 78.56ZM408.473 46.56L408.974 47.4255L408.98 47.4219L408.473 46.56ZM423.833 45.28L423.333 46.1462C423.338 46.1489 423.343 46.1515 423.347 46.1541L423.833 45.28ZM430.745 223.2L431.243 224.067C431.554 223.889 431.745 223.558 431.745 223.2H430.745ZM408.473 236H407.473C407.473 236.357 407.663 236.687 407.972 236.866C408.281 237.044 408.662 237.045 408.971 236.867L408.473 236ZM408.473 184.8H409.473C409.473 184.443 409.282 184.112 408.973 183.934C408.663 183.755 408.282 183.755 407.972 183.934L408.473 184.8ZM353.177 216.8L352.676 215.934C352.367 216.113 352.177 216.443 352.177 216.8H353.177ZM353.177 268L353.675 268.867C353.986 268.689 354.177 268.358 354.177 268H353.177ZM330.905 280.8H329.905C329.905 281.157 330.095 281.487 330.404 281.666C330.713 281.844 331.094 281.845 331.403 281.667L330.905 280.8ZM333.977 102.624L334.901 103.006L334.905 102.995L333.977 102.624ZM342.169 88.544L342.95 89.1687C342.954 89.1637 342.958 89.1587 342.962 89.1537L342.169 88.544ZM408.473 159.2L408.974 160.066C409.283 159.887 409.473 159.557 409.473 159.2H408.473ZM408.473 72.16H409.473C409.473 71.8025 409.282 71.4723 408.973 71.2937C408.663 71.1151 408.282 71.1154 407.972 71.2945L408.473 72.16ZM353.177 104.16L352.676 103.294C352.367 103.473 352.177 103.803 352.177 104.16H353.177ZM353.177 191.2H352.177C352.177 191.557 352.368 191.888 352.677 192.066C352.987 192.245 353.369 192.245 353.678 192.066L353.177 191.2ZM408.473 184.8H409.473C409.473 184.442 409.282 184.111 408.971 183.933L408.473 184.8ZM408.473 236L407.975 236.867C408.284 237.045 408.665 237.044 408.974 236.866C409.283 236.687 409.473 236.357 409.473 236H408.473ZM386.201 223.2H385.201C385.201 223.558 385.392 223.889 385.703 224.067L386.201 223.2ZM386.201 172L386.699 171.133C386.39 170.955 386.009 170.956 385.7 171.134C385.391 171.313 385.201 171.643 385.201 172H386.201ZM408.473 72.16H409.473C409.473 71.802 409.282 71.4713 408.971 71.293L408.473 72.16ZM408.473 159.2L407.975 160.067C408.284 160.245 408.665 160.244 408.974 160.066C409.283 159.887 409.473 159.557 409.473 159.2H408.473ZM386.201 146.4H385.201C385.201 146.758 385.392 147.089 385.703 147.267L386.201 146.4ZM386.201 59.36L386.699 58.493C386.39 58.3151 386.009 58.3157 385.7 58.4945C385.391 58.6732 385.201 59.0031 385.201 59.36H386.201ZM408.473 159.2L408.974 160.066C409.283 159.886 409.474 159.556 409.473 159.198C409.472 158.841 409.281 158.511 408.971 158.333L408.473 159.2ZM353.177 191.2L352.679 192.067C352.988 192.245 353.369 192.244 353.678 192.066L353.177 191.2ZM330.905 178.4L330.404 177.534C330.095 177.714 329.904 178.044 329.905 178.401C329.906 178.759 330.097 179.089 330.407 179.267L330.905 178.4ZM386.201 146.4L386.699 145.533C386.39 145.355 386.009 145.356 385.7 145.534L386.201 146.4ZM424.089 45.28L423.603 46.1541C424.084 46.421 424.689 46.2503 424.96 45.772C425.23 45.2936 425.064 44.6868 424.587 44.413L424.089 45.28ZM408.473 46.56L408.974 47.4255L408.98 47.4219L408.473 46.56ZM353.177 78.56L353.669 79.4306L353.678 79.4255L353.177 78.56ZM342.169 88.544L342.95 89.1687C342.954 89.1637 342.958 89.1587 342.962 89.1537L342.169 88.544ZM333.977 102.624L334.901 103.006L334.905 102.995L333.977 102.624ZM330.905 280.8L330.407 281.667C330.716 281.845 331.097 281.844 331.406 281.666C331.715 281.487 331.905 281.157 331.905 280.8H330.905ZM308.633 268H307.633C307.633 268.358 307.824 268.689 308.135 268.867L308.633 268ZM311.705 89.824L312.629 90.2064L312.633 90.1954L311.705 89.824ZM319.897 75.744L320.678 76.3687C320.682 76.3637 320.686 76.3587 320.69 76.3537L319.897 75.744ZM330.905 65.76L331.397 66.6306L331.406 66.6255L330.905 65.76ZM386.201 33.76L385.705 32.8917L385.7 32.8945L386.201 33.76ZM401.817 32.48L401.317 33.3462L401.319 33.347L401.817 32.48ZM353.678 79.4255L408.974 47.4255L407.972 45.6945L352.676 77.6945L353.678 79.4255ZM408.98 47.4219C414.584 44.1253 419.306 43.8228 423.333 46.1462L424.333 44.4138C419.485 41.6172 413.967 42.168 407.966 45.698L408.98 47.4219ZM423.347 46.1541C427.542 48.4847 429.745 52.7723 429.745 59.36H431.745C431.745 52.2943 429.34 47.1952 424.319 44.4058L423.347 46.1541ZM429.745 59.36V223.2H431.745V59.36H429.745ZM430.247 222.333L407.975 235.133L408.971 236.867L431.243 224.067L430.247 222.333ZM409.473 236V184.8H407.473V236H409.473ZM407.972 183.934L352.676 215.934L353.678 217.666L408.974 185.666L407.972 183.934ZM352.177 216.8V268H354.177V216.8H352.177ZM352.679 267.133L330.407 279.933L331.403 281.667L353.675 268.867L352.679 267.133ZM331.905 280.8V116.96H329.905V280.8H331.905ZM331.905 116.96C331.905 112.503 332.895 107.854 334.901 103.006L333.053 102.242C330.963 107.293 329.905 112.201 329.905 116.96H331.905ZM334.905 102.995C336.917 97.9658 339.598 93.3579 342.95 89.1687L341.388 87.9193C337.913 92.2634 335.133 97.0422 333.049 102.253L334.905 102.995ZM342.962 89.1537C346.312 84.7977 349.885 81.5694 353.669 79.4306L352.685 77.6894C348.618 79.9879 344.852 83.4156 341.376 87.9343L342.962 89.1537ZM409.473 159.2V72.16H407.473V159.2H409.473ZM407.972 71.2945L352.676 103.294L353.678 105.026L408.974 73.0255L407.972 71.2945ZM352.177 104.16V191.2H354.177V104.16H352.177ZM353.678 192.066L408.974 160.066L407.972 158.334L352.676 190.334L353.678 192.066ZM407.473 184.8V236H409.473V184.8H407.473ZM408.971 235.133L386.699 222.333L385.703 224.067L407.975 236.867L408.971 235.133ZM387.201 223.2V172H385.201V223.2H387.201ZM385.703 172.867L407.975 185.667L408.971 183.933L386.699 171.133L385.703 172.867ZM407.473 72.16V159.2H409.473V72.16H407.473ZM408.971 158.333L386.699 145.533L385.703 147.267L407.975 160.067L408.971 158.333ZM387.201 146.4V59.36H385.201V146.4H387.201ZM385.703 60.227L407.975 73.027L408.971 71.293L386.699 58.493L385.703 60.227ZM407.972 158.334L352.676 190.334L353.678 192.066L408.974 160.066L407.972 158.334ZM353.675 190.333L331.403 177.533L330.407 179.267L352.679 192.067L353.675 190.333ZM331.406 179.266L386.702 147.266L385.7 145.534L330.404 177.534L331.406 179.266ZM385.703 147.267L407.975 160.067L408.971 158.333L386.699 145.533L385.703 147.267ZM424.575 44.4058C419.569 41.6251 413.977 42.1624 407.966 45.698L408.98 47.4219C414.575 44.1309 419.393 43.8148 423.603 46.1541L424.575 44.4058ZM407.972 45.6945L352.676 77.6945L353.678 79.4255L408.974 47.4255L407.972 45.6945ZM352.685 77.6894C348.618 79.9879 344.852 83.4156 341.376 87.9343L342.962 89.1537C346.312 84.7977 349.885 81.5694 353.669 79.4306L352.685 77.6894ZM341.388 87.9193C337.913 92.2634 335.133 97.0422 333.049 102.253L334.905 102.995C336.917 97.9658 339.598 93.3579 342.95 89.1687L341.388 87.9193ZM333.053 102.242C330.963 107.293 329.905 112.201 329.905 116.96H331.905C331.905 112.503 332.895 107.854 334.901 103.006L333.053 102.242ZM329.905 116.96V280.8H331.905V116.96H329.905ZM331.403 279.933L309.131 267.133L308.135 268.867L330.407 281.667L331.403 279.933ZM309.633 268V104.16H307.633V268H309.633ZM309.633 104.16C309.633 99.7027 310.623 95.0539 312.629 90.2063L310.781 89.4416C308.691 94.4928 307.633 99.4013 307.633 104.16H309.633ZM312.633 90.1954C314.645 85.1658 317.326 80.5579 320.678 76.3687L319.116 75.1193C315.641 79.4634 312.861 84.2422 310.777 89.4526L312.633 90.1954ZM320.69 76.3537C324.04 71.9977 327.613 68.7694 331.397 66.6306L330.413 64.8894C326.346 67.1879 322.58 70.6156 319.104 75.1343L320.69 76.3537ZM331.406 66.6255L386.702 34.6255L385.7 32.8945L330.404 64.8945L331.406 66.6255ZM386.697 34.6282C392.482 31.3228 397.291 31.0235 401.317 33.3462L402.317 31.6138C397.468 28.8165 391.867 29.3706 385.705 32.8918L386.697 34.6282ZM401.319 33.347L423.591 46.147L424.587 44.413L402.315 31.613L401.319 33.347ZM515.091 232.16L515.591 233.026C515.9 232.848 516.091 232.517 516.091 232.16H515.091ZM515.091 104.16H516.091C516.091 103.803 515.9 103.473 515.591 103.294C515.282 103.115 514.901 103.115 514.591 103.294L515.091 104.16ZM475.155 127.2H474.155C474.155 127.557 474.346 127.887 474.655 128.066C474.964 128.245 475.345 128.245 475.655 128.066L475.155 127.2ZM475.155 101.6L474.655 100.734C474.345 100.913 474.155 101.243 474.155 101.6H475.155ZM577.043 42.72H578.043C578.043 42.3626 577.852 42.0325 577.543 41.8539C577.233 41.6753 576.852 41.6754 576.543 41.8542L577.043 42.72ZM577.043 68.32L577.543 69.1862C577.852 69.0076 578.043 68.6774 578.043 68.32H577.043ZM537.107 91.36L536.607 90.4938C536.298 90.6724 536.107 91.0026 536.107 91.36H537.107ZM537.107 219.36H536.107C536.107 219.717 536.298 220.047 536.607 220.226C536.916 220.405 537.297 220.405 537.607 220.226L537.107 219.36ZM577.043 196.32H578.043C578.043 195.963 577.852 195.633 577.543 195.454C577.234 195.275 576.853 195.275 576.543 195.454L577.043 196.32ZM577.043 221.92L577.543 222.786C577.853 222.607 578.043 222.277 578.043 221.92H577.043ZM475.155 280.8H474.155C474.155 281.157 474.346 281.488 474.655 281.666C474.965 281.845 475.346 281.845 475.655 281.666L475.155 280.8ZM475.155 255.2L474.655 254.334C474.346 254.512 474.155 254.843 474.155 255.2H475.155ZM515.091 232.16L515.591 233.026C515.901 232.847 516.091 232.517 516.091 232.159C516.091 231.801 515.899 231.471 515.589 231.293L515.091 232.16ZM475.155 255.2L474.657 256.067C474.966 256.245 475.346 256.244 475.655 256.066L475.155 255.2ZM452.883 242.4L452.383 241.534C452.073 241.713 451.883 242.043 451.883 242.401C451.883 242.759 452.075 243.089 452.385 243.267L452.883 242.4ZM492.819 219.36L493.317 218.493C493.008 218.315 492.628 218.316 492.319 218.494L492.819 219.36ZM475.155 255.2H476.155C476.155 254.842 475.964 254.511 475.653 254.333L475.155 255.2ZM475.155 280.8L474.657 281.667C474.966 281.845 475.347 281.844 475.656 281.666C475.965 281.487 476.155 281.157 476.155 280.8H475.155ZM452.883 268H451.883C451.883 268.358 452.074 268.689 452.385 268.867L452.883 268ZM452.883 242.4L453.381 241.533C453.072 241.355 452.691 241.356 452.382 241.534C452.073 241.713 451.883 242.043 451.883 242.4H452.883ZM577.043 196.32L577.543 197.186C577.852 197.008 578.042 196.678 578.043 196.322C578.044 195.965 577.854 195.635 577.546 195.455L577.043 196.32ZM537.107 219.36L536.604 220.225C536.914 220.405 537.296 220.405 537.607 220.226L537.107 219.36ZM515.091 206.56L514.591 205.694C514.282 205.872 514.092 206.202 514.091 206.558C514.09 206.915 514.28 207.245 514.588 207.425L515.091 206.56ZM555.027 183.52L555.53 182.655C555.22 182.475 554.838 182.475 554.527 182.654L555.027 183.52ZM515.091 104.16H516.091C516.091 103.802 515.9 103.471 515.589 103.293L515.091 104.16ZM515.091 232.16L514.593 233.027C514.902 233.205 515.283 233.204 515.592 233.026C515.901 232.847 516.091 232.517 516.091 232.16H515.091ZM492.819 219.36H491.819C491.819 219.718 492.01 220.049 492.321 220.227L492.819 219.36ZM492.819 91.36L493.317 90.493C493.008 90.3151 492.627 90.3157 492.318 90.4945C492.009 90.6732 491.819 91.0031 491.819 91.36H492.819ZM577.043 42.72L577.543 43.5858C577.852 43.4074 578.043 43.078 578.043 42.7213C578.043 42.3646 577.854 42.0347 577.546 41.8555L577.043 42.72ZM475.155 101.6L474.657 102.467C474.966 102.645 475.347 102.644 475.655 102.466L475.155 101.6ZM452.883 88.8L452.384 87.9336C452.074 88.1123 451.883 88.4429 451.883 88.8006C451.883 89.1584 452.075 89.4887 452.385 89.667L452.883 88.8ZM555.027 29.92L555.53 29.0555C555.22 28.8755 554.838 28.8748 554.528 29.0536L555.027 29.92ZM475.155 101.6H476.155C476.155 101.242 475.964 100.911 475.653 100.733L475.155 101.6ZM475.155 127.2L474.657 128.067C474.966 128.245 475.347 128.244 475.656 128.066C475.965 127.887 476.155 127.557 476.155 127.2H475.155ZM452.883 114.4H451.883C451.883 114.758 452.074 115.089 452.385 115.267L452.883 114.4ZM452.883 88.8L453.381 87.933C453.072 87.7551 452.691 87.7557 452.382 87.9345C452.073 88.1132 451.883 88.4431 451.883 88.8H452.883ZM516.091 232.16V104.16H514.091V232.16H516.091ZM514.591 103.294L474.655 126.334L475.655 128.066L515.591 105.026L514.591 103.294ZM476.155 127.2V101.6H474.155V127.2H476.155ZM475.655 102.466L577.543 43.5858L576.543 41.8542L474.655 100.734L475.655 102.466ZM576.043 42.72V68.32H578.043V42.72H576.043ZM576.543 67.4538L536.607 90.4938L537.607 92.2262L577.543 69.1862L576.543 67.4538ZM536.107 91.36V219.36H538.107V91.36H536.107ZM537.607 220.226L577.543 197.186L576.543 195.454L536.607 218.494L537.607 220.226ZM576.043 196.32V221.92H578.043V196.32H576.043ZM576.543 221.054L474.655 279.934L475.655 281.666L577.543 222.786L576.543 221.054ZM476.155 280.8V255.2H474.155V280.8H476.155ZM475.655 256.066L515.591 233.026L514.591 231.294L474.655 254.334L475.655 256.066ZM514.591 231.294L474.655 254.334L475.655 256.066L515.591 233.026L514.591 231.294ZM475.653 254.333L453.381 241.533L452.385 243.267L474.657 256.067L475.653 254.333ZM453.383 243.266L493.319 220.226L492.319 218.494L452.383 241.534L453.383 243.266ZM492.321 220.227L514.593 233.027L515.589 231.293L493.317 218.493L492.321 220.227ZM474.155 255.2V280.8H476.155V255.2H474.155ZM475.653 279.933L453.381 267.133L452.385 268.867L474.657 281.667L475.653 279.933ZM453.883 268V242.4H451.883V268H453.883ZM452.385 243.267L474.657 256.067L475.653 254.333L453.381 241.533L452.385 243.267ZM576.543 195.454L536.607 218.494L537.607 220.226L577.543 197.186L576.543 195.454ZM537.61 218.495L515.594 205.695L514.588 207.425L536.604 220.225L537.61 218.495ZM515.591 207.426L555.527 184.386L554.527 182.654L514.591 205.694L515.591 207.426ZM554.524 184.385L576.54 197.185L577.546 195.455L555.53 182.655L554.524 184.385ZM514.091 104.16V232.16H516.091V104.16H514.091ZM515.589 231.293L493.317 218.493L492.321 220.227L514.593 233.027L515.589 231.293ZM493.819 219.36V91.36H491.819V219.36H493.819ZM492.321 92.227L514.593 105.027L515.589 103.293L493.317 90.493L492.321 92.227ZM576.543 41.8542L474.655 100.734L475.655 102.466L577.543 43.5858L576.543 41.8542ZM475.653 100.733L453.381 87.933L452.385 89.667L474.657 102.467L475.653 100.733ZM453.382 89.6664L555.526 30.7863L554.528 29.0536L452.384 87.9336L453.382 89.6664ZM554.524 30.7845L576.54 43.5845L577.546 41.8555L555.53 29.0555L554.524 30.7845ZM474.155 101.6V127.2H476.155V101.6H474.155ZM475.653 126.333L453.381 113.533L452.385 115.267L474.657 128.067L475.653 126.333ZM453.883 114.4V88.8H451.883V114.4H453.883ZM452.385 89.667L474.657 102.467L475.653 100.733L453.381 87.933L452.385 89.667ZM676.951 69.6L676.455 68.7317L676.45 68.7345L676.951 69.6ZM692.567 68.32L692.067 69.1862L692.067 69.1862L692.567 68.32ZM699.223 210.4H698.223C698.223 210.757 698.414 211.087 698.723 211.266C699.032 211.445 699.413 211.445 699.723 211.266L699.223 210.4ZM732.503 191.2L733.003 192.066C733.312 191.888 733.503 191.557 733.503 191.2H732.503ZM732.503 37.6L732.005 36.733C731.694 36.9113 731.503 37.242 731.503 37.6H732.503ZM754.775 24.8H755.775C755.775 24.4431 755.585 24.1132 755.276 23.9345C754.967 23.7557 754.586 23.7551 754.277 23.933L754.775 24.8ZM754.775 204L755.274 204.867C755.584 204.688 755.775 204.358 755.775 204H754.775ZM699.223 236L698.724 235.133L698.716 235.138L699.223 236ZM683.607 237.28L683.107 238.146C683.112 238.149 683.117 238.152 683.121 238.154L683.607 237.28ZM676.951 95.2H677.951C677.951 94.8422 677.76 94.5116 677.45 94.3332C677.14 94.1548 676.758 94.1556 676.448 94.3355L676.951 95.2ZM643.927 114.4L643.424 113.535C643.116 113.715 642.927 114.044 642.927 114.4H643.927ZM643.927 268L644.425 268.867C644.736 268.689 644.927 268.358 644.927 268H643.927ZM621.655 280.8H620.655C620.655 281.157 620.845 281.487 621.154 281.666C621.463 281.844 621.844 281.845 622.153 281.667L621.655 280.8ZM621.655 101.6L621.154 100.734C620.845 100.913 620.655 101.243 620.655 101.6H621.655ZM754.775 24.8L755.273 25.667C755.584 25.4886 755.775 25.158 755.775 24.8C755.775 24.442 755.584 24.1113 755.273 23.933L754.775 24.8ZM732.503 37.6L732.005 38.467C732.313 38.6443 732.693 38.6443 733.001 38.467L732.503 37.6ZM710.231 24.8L709.733 23.933C709.422 24.1113 709.231 24.442 709.231 24.8C709.231 25.158 709.422 25.4886 709.733 25.667L710.231 24.8ZM732.503 12L733.001 11.133C732.693 10.9557 732.313 10.9557 732.005 11.133L732.503 12ZM732.503 37.6H733.503C733.503 37.242 733.312 36.9113 733.001 36.733L732.503 37.6ZM732.503 191.2L732.005 192.067C732.314 192.245 732.695 192.244 733.004 192.066C733.313 191.887 733.503 191.557 733.503 191.2H732.503ZM710.231 178.4H709.231C709.231 178.758 709.422 179.089 709.733 179.267L710.231 178.4ZM710.231 24.8L710.729 23.933C710.42 23.7551 710.039 23.7557 709.73 23.9345C709.421 24.1132 709.231 24.4431 709.231 24.8H710.231ZM732.503 191.2L733.003 192.066C733.313 191.887 733.503 191.557 733.503 191.199C733.503 190.841 733.311 190.511 733.001 190.333L732.503 191.2ZM699.223 210.4L698.725 211.267C699.034 211.445 699.414 211.444 699.723 211.266L699.223 210.4ZM676.951 197.6L676.451 196.734C676.141 196.913 675.951 197.243 675.951 197.601C675.951 197.959 676.143 198.289 676.453 198.467L676.951 197.6ZM710.231 178.4L710.729 177.533C710.42 177.355 710.04 177.356 709.731 177.534L710.231 178.4ZM676.951 95.2H677.951C677.951 94.8438 677.762 94.5145 677.454 94.3355L676.951 95.2ZM683.607 237.28L683.107 238.146C683.585 238.422 684.196 238.259 684.472 237.781C684.749 237.304 684.587 236.693 684.11 236.415L683.607 237.28ZM661.591 224.48L662.094 223.615L662.091 223.614L661.591 224.48ZM654.935 82.4L655.438 81.5355C655.128 81.3556 654.746 81.3548 654.436 81.5332C654.126 81.7116 653.935 82.0422 653.935 82.4H654.935ZM692.567 68.32L692.069 69.187C692.547 69.462 693.158 69.2973 693.434 68.819C693.709 68.3407 693.545 67.7296 693.067 67.4538L692.567 68.32ZM676.951 69.6L676.455 68.7317L676.45 68.7345L676.951 69.6ZM621.655 101.6L621.157 102.467C621.466 102.645 621.847 102.644 622.156 102.466L621.655 101.6ZM599.383 88.8L598.884 87.9335C598.574 88.1121 598.383 88.4427 598.383 88.8005C598.383 89.1583 598.575 89.4887 598.885 89.667L599.383 88.8ZM654.935 56.8L655.434 57.6665L655.442 57.6619L654.935 56.8ZM670.295 55.52L669.795 56.3862L669.797 56.387L670.295 55.52ZM621.655 101.6H622.655C622.655 101.242 622.464 100.911 622.153 100.733L621.655 101.6ZM621.655 280.8L621.157 281.667C621.466 281.845 621.847 281.844 622.156 281.666C622.465 281.487 622.655 281.157 622.655 280.8H621.655ZM599.383 268H598.383C598.383 268.358 598.574 268.689 598.885 268.867L599.383 268ZM599.383 88.8L599.881 87.933C599.572 87.7551 599.191 87.7557 598.882 87.9345C598.573 88.1132 598.383 88.4431 598.383 88.8H599.383ZM677.447 70.4682C683.232 67.1628 688.041 66.8635 692.067 69.1862L693.067 67.4538C688.218 64.6565 682.617 65.2106 676.455 68.7317L677.447 70.4682ZM692.067 69.1862C696.093 71.5089 698.223 75.7953 698.223 82.4H700.223C700.223 75.3513 697.915 70.2511 693.067 67.4538L692.067 69.1862ZM698.223 82.4V210.4H700.223V82.4H698.223ZM699.723 211.266L733.003 192.066L732.003 190.334L698.723 209.534L699.723 211.266ZM733.503 191.2V37.6H731.503V191.2H733.503ZM733.001 38.467L755.273 25.667L754.277 23.933L732.005 36.733L733.001 38.467ZM753.775 24.8V204H755.775V24.8H753.775ZM754.276 203.133L698.724 235.133L699.722 236.867L755.274 204.867L754.276 203.133ZM698.716 235.138C693.121 238.429 688.303 238.745 684.093 236.406L683.121 238.154C688.127 240.935 693.719 240.398 699.73 236.862L698.716 235.138ZM684.107 236.414C680.081 234.091 677.951 229.805 677.951 223.2H675.951C675.951 230.249 678.259 235.349 683.107 238.146L684.107 236.414ZM677.951 223.2V95.2H675.951V223.2H677.951ZM676.448 94.3355L643.424 113.535L644.43 115.265L677.454 96.0645L676.448 94.3355ZM642.927 114.4V268H644.927V114.4H642.927ZM643.429 267.133L621.157 279.933L622.153 281.667L644.425 268.867L643.429 267.133ZM622.655 280.8V101.6H620.655V280.8H622.655ZM622.156 102.466L677.452 70.4655L676.45 68.7345L621.154 100.734L622.156 102.466ZM754.277 23.933L732.005 36.733L733.001 38.467L755.273 25.667L754.277 23.933ZM733.001 36.733L710.729 23.933L709.733 25.667L732.005 38.467L733.001 36.733ZM710.729 25.667L733.001 12.867L732.005 11.133L709.733 23.933L710.729 25.667ZM732.005 12.867L754.277 25.667L755.273 23.933L733.001 11.133L732.005 12.867ZM731.503 37.6V191.2H733.503V37.6H731.503ZM733.001 190.333L710.729 177.533L709.733 179.267L732.005 192.067L733.001 190.333ZM711.231 178.4V24.8H709.231V178.4H711.231ZM709.733 25.667L732.005 38.467L733.001 36.733L710.729 23.933L709.733 25.667ZM732.003 190.334L698.723 209.534L699.723 211.266L733.003 192.066L732.003 190.334ZM699.721 209.533L677.449 196.733L676.453 198.467L698.725 211.267L699.721 209.533ZM677.451 198.466L710.731 179.266L709.731 177.534L676.451 196.734L677.451 198.466ZM709.733 179.267L732.005 192.067L733.001 190.333L710.729 177.533L709.733 179.267ZM675.951 95.2V223.2H677.951V95.2H675.951ZM675.951 223.2C675.951 230.249 678.259 235.349 683.107 238.146L684.107 236.414C680.081 234.091 677.951 229.805 677.951 223.2H675.951ZM684.11 236.415L662.094 223.615L661.088 225.345L683.104 238.145L684.11 236.415ZM662.091 223.614C658.065 221.291 655.935 217.005 655.935 210.4H653.935C653.935 217.449 656.243 222.549 661.091 225.346L662.091 223.614ZM655.935 210.4V82.4H653.935V210.4H655.935ZM654.432 83.2645L676.448 96.0645L677.454 94.3355L655.438 81.5355L654.432 83.2645ZM693.067 67.4538C688.218 64.6565 682.617 65.2106 676.455 68.7317L677.447 70.4682C683.232 67.1628 688.041 66.8635 692.067 69.1862L693.067 67.4538ZM676.45 68.7345L621.154 100.734L622.156 102.466L677.452 70.4655L676.45 68.7345ZM622.153 100.733L599.881 87.933L598.885 89.667L621.157 102.467L622.153 100.733ZM599.882 89.6665L655.434 57.6665L654.436 55.9335L598.884 87.9335L599.882 89.6665ZM655.442 57.6619C661.046 54.3653 665.768 54.0628 669.795 56.3862L670.795 54.6538C665.947 51.8572 660.429 52.408 654.428 55.9381L655.442 57.6619ZM669.797 56.387L692.069 69.187L693.065 67.453L670.793 54.653L669.797 56.387ZM620.655 101.6V280.8H622.655V101.6H620.655ZM622.153 279.933L599.881 267.133L598.885 268.867L621.157 281.667L622.153 279.933ZM600.383 268V88.8H598.383V268H600.383ZM598.885 89.667L621.157 102.467L622.153 100.733L599.881 87.933L598.885 89.667ZM821.427 252.64H820.427C820.427 252.997 820.618 253.328 820.927 253.506C821.237 253.685 821.619 253.685 821.928 253.506L821.427 252.64ZM876.723 220.64H877.723C877.723 220.283 877.532 219.952 877.223 219.774C876.913 219.595 876.532 219.595 876.222 219.774L876.723 220.64ZM876.723 246.24L877.224 247.106C877.533 246.927 877.723 246.597 877.723 246.24H876.723ZM821.427 278.24L821.923 279.108L821.928 279.106L821.427 278.24ZM805.811 279.52L805.311 280.386L805.311 280.386L805.811 279.52ZM799.155 63.2L798.657 62.333C798.346 62.5114 798.155 62.842 798.155 63.2H799.155ZM821.427 50.4H822.427C822.427 50.0431 822.237 49.7132 821.928 49.5345C821.619 49.3557 821.238 49.3551 820.929 49.533L821.427 50.4ZM821.427 50.4L821.925 51.267C822.236 51.0886 822.427 50.758 822.427 50.4C822.427 50.042 822.236 49.7114 821.925 49.533L821.427 50.4ZM799.155 63.2L798.657 64.067C798.965 64.2443 799.345 64.2443 799.653 64.067L799.155 63.2ZM776.883 50.4L776.385 49.533C776.074 49.7114 775.883 50.042 775.883 50.4C775.883 50.758 776.074 51.0886 776.385 51.267L776.883 50.4ZM799.155 37.6L799.653 36.733C799.345 36.5557 798.965 36.5557 798.657 36.733L799.155 37.6ZM876.723 220.64L877.224 221.506C877.533 221.326 877.724 220.996 877.723 220.639C877.722 220.281 877.531 219.951 877.221 219.773L876.723 220.64ZM821.427 252.64L820.929 253.507C821.238 253.685 821.619 253.684 821.928 253.506L821.427 252.64ZM799.155 239.84L798.654 238.974C798.345 239.154 798.154 239.484 798.155 239.841C798.156 240.199 798.347 240.529 798.657 240.707L799.155 239.84ZM854.451 207.84L854.949 206.973C854.64 206.795 854.259 206.796 853.95 206.974L854.451 207.84ZM799.155 63.2H800.155C800.155 62.842 799.964 62.5114 799.653 62.333L799.155 63.2ZM805.811 279.52L805.313 280.387C805.791 280.662 806.402 280.497 806.678 280.019C806.953 279.541 806.789 278.93 806.311 278.654L805.811 279.52ZM783.539 266.72L783.039 267.586L783.041 267.587L783.539 266.72ZM776.883 50.4L777.381 49.533C777.072 49.3551 776.691 49.3557 776.382 49.5345C776.073 49.7132 775.883 50.0431 775.883 50.4H776.883ZM821.928 253.506L877.224 221.506L876.222 219.774L820.926 251.774L821.928 253.506ZM875.723 220.64V246.24H877.723V220.64H875.723ZM876.222 245.374L820.926 277.374L821.928 279.106L877.224 247.106L876.222 245.374ZM820.931 277.372C815.146 280.677 810.337 280.976 806.311 278.654L805.311 280.386C810.16 283.184 815.761 282.629 821.923 279.108L820.931 277.372ZM806.311 278.654C802.285 276.331 800.155 272.045 800.155 265.44H798.155C798.155 272.489 800.463 277.589 805.311 280.386L806.311 278.654ZM800.155 265.44V63.2H798.155V265.44H800.155ZM799.653 64.067L821.925 51.267L820.929 49.533L798.657 62.333L799.653 64.067ZM820.427 50.4V252.64H822.427V50.4H820.427ZM820.929 49.533L798.657 62.333L799.653 64.067L821.925 51.267L820.929 49.533ZM799.653 62.333L777.381 49.533L776.385 51.267L798.657 64.067L799.653 62.333ZM777.381 51.267L799.653 38.467L798.657 36.733L776.385 49.533L777.381 51.267ZM798.657 38.467L820.929 51.267L821.925 49.533L799.653 36.733L798.657 38.467ZM876.222 219.774L820.926 251.774L821.928 253.506L877.224 221.506L876.222 219.774ZM821.925 251.773L799.653 238.973L798.657 240.707L820.929 253.507L821.925 251.773ZM799.656 240.706L854.952 208.706L853.95 206.974L798.654 238.974L799.656 240.706ZM853.953 208.707L876.225 221.507L877.221 219.773L854.949 206.973L853.953 208.707ZM798.155 63.2V265.44H800.155V63.2H798.155ZM798.155 265.44C798.155 272.489 800.463 277.589 805.311 280.386L806.311 278.654C802.285 276.331 800.155 272.045 800.155 265.44H798.155ZM806.309 278.653L784.037 265.853L783.041 267.587L805.313 280.387L806.309 278.653ZM784.039 265.854C780.013 263.531 777.883 259.245 777.883 252.64H775.883C775.883 259.689 778.191 264.789 783.039 267.586L784.039 265.854ZM777.883 252.64V50.4H775.883V252.64H777.883ZM776.385 51.267L798.657 64.067L799.653 62.333L777.381 49.533L776.385 51.267ZM960.841 232.16L961.341 233.026C961.65 232.848 961.841 232.517 961.841 232.16H960.841ZM960.841 104.16H961.841C961.841 103.803 961.65 103.473 961.341 103.294C961.032 103.115 960.651 103.115 960.341 103.294L960.841 104.16ZM920.905 127.2H919.905C919.905 127.557 920.096 127.887 920.405 128.066C920.714 128.245 921.095 128.245 921.405 128.066L920.905 127.2ZM920.905 101.6L920.405 100.734C920.095 100.913 919.905 101.243 919.905 101.6H920.905ZM1022.79 42.72H1023.79C1023.79 42.3626 1023.6 42.0325 1023.29 41.8539C1022.98 41.6753 1022.6 41.6754 1022.29 41.8542L1022.79 42.72ZM1022.79 68.32L1023.29 69.1862C1023.6 69.0076 1023.79 68.6774 1023.79 68.32H1022.79ZM982.857 91.36L982.357 90.4938C982.048 90.6724 981.857 91.0026 981.857 91.36H982.857ZM982.857 219.36H981.857C981.857 219.717 982.048 220.047 982.357 220.226C982.666 220.405 983.047 220.405 983.357 220.226L982.857 219.36ZM1022.79 196.32H1023.79C1023.79 195.963 1023.6 195.633 1023.29 195.454C1022.98 195.275 1022.6 195.275 1022.29 195.454L1022.79 196.32ZM1022.79 221.92L1023.29 222.786C1023.6 222.607 1023.79 222.277 1023.79 221.92H1022.79ZM920.905 280.8H919.905C919.905 281.157 920.096 281.488 920.405 281.666C920.715 281.845 921.096 281.845 921.405 281.666L920.905 280.8ZM920.905 255.2L920.405 254.334C920.096 254.512 919.905 254.843 919.905 255.2H920.905ZM960.841 232.16L961.341 233.026C961.651 232.847 961.841 232.517 961.841 232.159C961.841 231.801 961.649 231.471 961.339 231.293L960.841 232.16ZM920.905 255.2L920.407 256.067C920.716 256.245 921.096 256.244 921.405 256.066L920.905 255.2ZM898.633 242.4L898.133 241.534C897.823 241.713 897.633 242.043 897.633 242.401C897.633 242.759 897.825 243.089 898.135 243.267L898.633 242.4ZM938.569 219.36L939.067 218.493C938.758 218.315 938.378 218.316 938.069 218.494L938.569 219.36ZM920.905 255.2H921.905C921.905 254.842 921.714 254.511 921.403 254.333L920.905 255.2ZM920.905 280.8L920.407 281.667C920.716 281.845 921.097 281.844 921.406 281.666C921.715 281.487 921.905 281.157 921.905 280.8H920.905ZM898.633 268H897.633C897.633 268.358 897.824 268.689 898.135 268.867L898.633 268ZM898.633 242.4L899.131 241.533C898.822 241.355 898.441 241.356 898.132 241.534C897.823 241.713 897.633 242.043 897.633 242.4H898.633ZM1022.79 196.32L1023.29 197.186C1023.6 197.008 1023.79 196.678 1023.79 196.322C1023.79 195.965 1023.6 195.635 1023.3 195.455L1022.79 196.32ZM982.857 219.36L982.354 220.225C982.664 220.405 983.046 220.405 983.357 220.226L982.857 219.36ZM960.841 206.56L960.341 205.694C960.032 205.872 959.842 206.202 959.841 206.558C959.84 206.915 960.03 207.245 960.338 207.425L960.841 206.56ZM1000.78 183.52L1001.28 182.655C1000.97 182.475 1000.59 182.475 1000.28 182.654L1000.78 183.52ZM960.841 104.16H961.841C961.841 103.802 961.65 103.471 961.339 103.293L960.841 104.16ZM960.841 232.16L960.343 233.027C960.652 233.205 961.033 233.204 961.342 233.026C961.651 232.847 961.841 232.517 961.841 232.16H960.841ZM938.569 219.36H937.569C937.569 219.718 937.76 220.049 938.071 220.227L938.569 219.36ZM938.569 91.36L939.067 90.493C938.758 90.3151 938.377 90.3157 938.068 90.4945C937.759 90.6732 937.569 91.0031 937.569 91.36H938.569ZM1022.79 42.72L1023.29 43.5858C1023.6 43.4074 1023.79 43.078 1023.79 42.7213C1023.79 42.3646 1023.6 42.0347 1023.3 41.8555L1022.79 42.72ZM920.905 101.6L920.407 102.467C920.716 102.645 921.097 102.644 921.405 102.466L920.905 101.6ZM898.633 88.8L898.134 87.9336C897.824 88.1123 897.633 88.4429 897.633 88.8006C897.633 89.1584 897.825 89.4887 898.135 89.667L898.633 88.8ZM1000.78 29.92L1001.28 29.0555C1000.97 28.8755 1000.59 28.8748 1000.28 29.0536L1000.78 29.92ZM920.905 101.6H921.905C921.905 101.242 921.714 100.911 921.403 100.733L920.905 101.6ZM920.905 127.2L920.407 128.067C920.716 128.245 921.097 128.244 921.406 128.066C921.715 127.887 921.905 127.557 921.905 127.2H920.905ZM898.633 114.4H897.633C897.633 114.758 897.824 115.089 898.135 115.267L898.633 114.4ZM898.633 88.8L899.131 87.933C898.822 87.7551 898.441 87.7557 898.132 87.9345C897.823 88.1132 897.633 88.4431 897.633 88.8H898.633ZM961.841 232.16V104.16H959.841V232.16H961.841ZM960.341 103.294L920.405 126.334L921.405 128.066L961.341 105.026L960.341 103.294ZM921.905 127.2V101.6H919.905V127.2H921.905ZM921.405 102.466L1023.29 43.5858L1022.29 41.8542L920.405 100.734L921.405 102.466ZM1021.79 42.72V68.32H1023.79V42.72H1021.79ZM1022.29 67.4538L982.357 90.4938L983.357 92.2262L1023.29 69.1862L1022.29 67.4538ZM981.857 91.36V219.36H983.857V91.36H981.857ZM983.357 220.226L1023.29 197.186L1022.29 195.454L982.357 218.494L983.357 220.226ZM1021.79 196.32V221.92H1023.79V196.32H1021.79ZM1022.29 221.054L920.405 279.934L921.405 281.666L1023.29 222.786L1022.29 221.054ZM921.905 280.8V255.2H919.905V280.8H921.905ZM921.405 256.066L961.341 233.026L960.341 231.294L920.405 254.334L921.405 256.066ZM960.341 231.294L920.405 254.334L921.405 256.066L961.341 233.026L960.341 231.294ZM921.403 254.333L899.131 241.533L898.135 243.267L920.407 256.067L921.403 254.333ZM899.133 243.266L939.069 220.226L938.069 218.494L898.133 241.534L899.133 243.266ZM938.071 220.227L960.343 233.027L961.339 231.293L939.067 218.493L938.071 220.227ZM919.905 255.2V280.8H921.905V255.2H919.905ZM921.403 279.933L899.131 267.133L898.135 268.867L920.407 281.667L921.403 279.933ZM899.633 268V242.4H897.633V268H899.633ZM898.135 243.267L920.407 256.067L921.403 254.333L899.131 241.533L898.135 243.267ZM1022.29 195.454L982.357 218.494L983.357 220.226L1023.29 197.186L1022.29 195.454ZM983.36 218.495L961.344 205.695L960.338 207.425L982.354 220.225L983.36 218.495ZM961.341 207.426L1001.28 184.386L1000.28 182.654L960.341 205.694L961.341 207.426ZM1000.27 184.385L1022.29 197.185L1023.3 195.455L1001.28 182.655L1000.27 184.385ZM959.841 104.16V232.16H961.841V104.16H959.841ZM961.339 231.293L939.067 218.493L938.071 220.227L960.343 233.027L961.339 231.293ZM939.569 219.36V91.36H937.569V219.36H939.569ZM938.071 92.227L960.343 105.027L961.339 103.293L939.067 90.493L938.071 92.227ZM1022.29 41.8542L920.405 100.734L921.405 102.466L1023.29 43.5858L1022.29 41.8542ZM921.403 100.733L899.131 87.933L898.135 89.667L920.407 102.467L921.403 100.733ZM899.132 89.6664L1001.28 30.7863L1000.28 29.0536L898.134 87.9336L899.132 89.6664ZM1000.27 30.7845L1022.29 43.5845L1023.3 41.8555L1001.28 29.0555L1000.27 30.7845ZM919.905 101.6V127.2H921.905V101.6H919.905ZM921.403 126.333L899.131 113.533L898.135 115.267L920.407 128.067L921.403 126.333ZM899.633 114.4V88.8H897.633V114.4H899.633ZM898.135 89.667L920.407 102.467L921.403 100.733L899.131 87.933L898.135 89.667ZM1089.68 191.2L1090.17 192.068L1090.18 192.066L1089.68 191.2ZM1074.06 192.48L1074.56 191.614L1074.56 191.614L1074.06 192.48ZM1070.48 102.624L1071.4 103.006L1071.41 102.995L1070.48 102.624ZM1078.67 88.544L1079.45 89.1687C1079.45 89.1637 1079.46 89.1587 1079.46 89.1537L1078.67 88.544ZM1089.68 78.56L1090.17 79.4306L1090.18 79.4255L1089.68 78.56ZM1144.97 46.56L1145.47 47.4255L1145.48 47.4219L1144.97 46.56ZM1160.33 45.28L1159.83 46.1462C1159.84 46.1489 1159.84 46.1515 1159.85 46.1541L1160.33 45.28ZM1167.25 95.2L1167.74 96.067C1168.05 95.8886 1168.25 95.558 1168.25 95.2H1167.25ZM1144.97 108H1143.97C1143.97 108.357 1144.16 108.687 1144.47 108.866C1144.78 109.044 1145.16 109.045 1145.47 108.867L1144.97 108ZM1144.97 72.16H1145.97C1145.97 71.8025 1145.78 71.4723 1145.47 71.2937C1145.16 71.1151 1144.78 71.1154 1144.47 71.2945L1144.97 72.16ZM1089.68 104.16L1089.18 103.294C1088.87 103.473 1088.68 103.803 1088.68 104.16H1089.68ZM1089.68 165.6H1088.68C1088.68 165.957 1088.87 166.288 1089.18 166.466C1089.49 166.645 1089.87 166.645 1090.18 166.466L1089.68 165.6ZM1144.97 133.6L1145.47 134.466L1145.48 134.462L1144.97 133.6ZM1160.33 132.32L1159.83 133.186C1159.84 133.189 1159.84 133.192 1159.85 133.194L1160.33 132.32ZM1163.92 222.176L1163 221.778C1163 221.787 1162.99 221.796 1162.99 221.805L1163.92 222.176ZM1155.73 236.512L1154.93 235.902L1154.93 235.907L1155.73 236.512ZM1144.97 246.24L1144.48 245.369L1144.47 245.374L1144.97 246.24ZM1089.68 278.24L1090.17 279.108L1090.18 279.106L1089.68 278.24ZM1074.06 279.52L1073.56 280.386L1073.56 280.386L1074.06 279.52ZM1067.41 239.84L1066.91 238.973C1066.6 239.151 1066.41 239.482 1066.41 239.84H1067.41ZM1089.68 227.04H1090.68C1090.68 226.683 1090.49 226.353 1090.18 226.174C1089.87 225.996 1089.49 225.995 1089.18 226.173L1089.68 227.04ZM1089.68 252.64H1088.68C1088.68 252.997 1088.87 253.328 1089.18 253.506C1089.49 253.685 1089.87 253.685 1090.18 253.506L1089.68 252.64ZM1144.97 220.64L1145.47 221.506C1145.78 221.327 1145.97 220.997 1145.97 220.64H1144.97ZM1144.97 159.2H1145.97C1145.97 158.843 1145.78 158.512 1145.47 158.334C1145.16 158.155 1144.78 158.155 1144.47 158.334L1144.97 159.2ZM1144.97 159.2H1145.97C1145.97 158.842 1145.78 158.511 1145.47 158.333L1144.97 159.2ZM1144.97 220.64L1144.47 221.507C1144.78 221.685 1145.16 221.684 1145.47 221.506C1145.78 221.327 1145.97 220.997 1145.97 220.64H1144.97ZM1122.7 207.84H1121.7C1121.7 208.198 1121.89 208.529 1122.2 208.707L1122.7 207.84ZM1122.7 146.4L1123.2 145.533C1122.89 145.355 1122.51 145.356 1122.2 145.534C1121.89 145.713 1121.7 146.043 1121.7 146.4H1122.7ZM1144.97 220.64L1145.47 221.506C1145.78 221.326 1145.97 220.996 1145.97 220.639C1145.97 220.281 1145.78 219.951 1145.47 219.773L1144.97 220.64ZM1089.68 252.64L1089.18 253.507C1089.49 253.685 1089.87 253.684 1090.18 253.506L1089.68 252.64ZM1067.41 239.84L1066.9 238.974C1066.59 239.154 1066.4 239.484 1066.41 239.841C1066.41 240.199 1066.6 240.529 1066.91 240.707L1067.41 239.84ZM1122.7 207.84L1123.2 206.973C1122.89 206.795 1122.51 206.796 1122.2 206.974L1122.7 207.84ZM1144.97 72.16H1145.97C1145.97 71.802 1145.78 71.4713 1145.47 71.293L1144.97 72.16ZM1144.97 108L1144.47 108.867C1144.78 109.045 1145.16 109.044 1145.47 108.866C1145.78 108.687 1145.97 108.357 1145.97 108H1144.97ZM1122.7 95.2H1121.7C1121.7 95.558 1121.89 95.8886 1122.2 96.067L1122.7 95.2ZM1122.7 59.36L1123.2 58.493C1122.89 58.3151 1122.51 58.3157 1122.2 58.4945C1121.89 58.6732 1121.7 59.0031 1121.7 59.36H1122.7ZM1089.68 227.04L1090.18 227.907C1090.49 227.729 1090.68 227.398 1090.68 227.04C1090.68 226.682 1090.49 226.351 1090.18 226.173L1089.68 227.04ZM1067.41 239.84L1066.91 240.707C1067.22 240.884 1067.59 240.884 1067.9 240.707L1067.41 239.84ZM1045.13 227.04L1044.63 226.173C1044.32 226.351 1044.13 226.682 1044.13 227.04C1044.13 227.398 1044.32 227.729 1044.63 227.907L1045.13 227.04ZM1067.41 214.24L1067.9 213.373C1067.59 213.196 1067.22 213.196 1066.91 213.373L1067.41 214.24ZM1067.41 239.84H1068.41C1068.41 239.482 1068.21 239.151 1067.9 238.973L1067.41 239.84ZM1074.06 279.52L1073.56 280.387C1074.04 280.662 1074.65 280.497 1074.93 280.019C1075.2 279.541 1075.04 278.93 1074.56 278.654L1074.06 279.52ZM1051.79 266.72L1051.29 267.586L1051.29 267.587L1051.79 266.72ZM1045.13 227.04L1045.63 226.173C1045.32 225.995 1044.94 225.996 1044.63 226.174C1044.32 226.353 1044.13 226.683 1044.13 227.04H1045.13ZM1160.59 132.32L1160.1 133.194C1160.58 133.461 1161.19 133.29 1161.46 132.812C1161.73 132.334 1161.56 131.727 1161.09 131.453L1160.59 132.32ZM1144.97 133.6L1145.47 134.466L1145.48 134.462L1144.97 133.6ZM1089.68 165.6L1089.18 166.467C1089.49 166.645 1089.87 166.644 1090.18 166.466L1089.68 165.6ZM1067.41 152.8L1066.9 151.934C1066.59 152.114 1066.4 152.444 1066.41 152.801C1066.41 153.159 1066.6 153.489 1066.91 153.667L1067.41 152.8ZM1122.7 120.8L1122.2 119.932L1122.2 119.934L1122.7 120.8ZM1138.32 119.52L1137.82 120.386L1137.82 120.387L1138.32 119.52ZM1160.59 45.28L1160.1 46.1541C1160.58 46.421 1161.19 46.2503 1161.46 45.772C1161.73 45.2936 1161.56 44.6868 1161.09 44.413L1160.59 45.28ZM1144.97 46.56L1145.47 47.4255L1145.48 47.4219L1144.97 46.56ZM1089.68 78.56L1090.17 79.4306L1090.18 79.4255L1089.68 78.56ZM1078.67 88.544L1079.45 89.1687C1079.45 89.1637 1079.46 89.1587 1079.46 89.1537L1078.67 88.544ZM1070.48 102.624L1071.4 103.006L1071.41 102.995L1070.48 102.624ZM1074.06 192.48L1073.56 193.347C1074.04 193.622 1074.65 193.457 1074.93 192.979C1075.2 192.501 1075.04 191.89 1074.56 191.614L1074.06 192.48ZM1051.79 179.68L1051.29 180.546L1051.29 180.547L1051.79 179.68ZM1048.21 89.824L1049.13 90.2064L1049.13 90.1954L1048.21 89.824ZM1056.4 75.744L1057.18 76.3687C1057.18 76.3637 1057.19 76.3587 1057.19 76.3537L1056.4 75.744ZM1067.41 65.76L1067.9 66.6306L1067.91 66.6255L1067.41 65.76ZM1122.7 33.76L1122.2 32.8917L1122.2 32.8945L1122.7 33.76ZM1138.32 32.48L1137.82 33.3462L1137.82 33.347L1138.32 32.48ZM1089.18 190.332C1083.4 193.637 1078.59 193.936 1074.56 191.614L1073.56 193.346C1078.41 196.144 1084.01 195.589 1090.17 192.068L1089.18 190.332ZM1074.56 191.614C1070.53 189.291 1068.41 185.005 1068.41 178.4H1066.41C1066.41 185.449 1068.71 190.549 1073.56 193.346L1074.56 191.614ZM1068.41 178.4V116.96H1066.41V178.4H1068.41ZM1068.41 116.96C1068.41 112.503 1069.4 107.854 1071.4 103.006L1069.55 102.242C1067.46 107.293 1066.41 112.201 1066.41 116.96H1068.41ZM1071.41 102.995C1073.42 97.9658 1076.1 93.3579 1079.45 89.1687L1077.89 87.9193C1074.41 92.2634 1071.63 97.0422 1069.55 102.253L1071.41 102.995ZM1079.46 89.1537C1082.81 84.7977 1086.38 81.5694 1090.17 79.4306L1089.18 77.6894C1085.12 79.9879 1081.35 83.4156 1077.88 87.9343L1079.46 89.1537ZM1090.18 79.4255L1145.47 47.4255L1144.47 45.6945L1089.18 77.6945L1090.18 79.4255ZM1145.48 47.4219C1151.08 44.1253 1155.81 43.8228 1159.83 46.1462L1160.83 44.4138C1155.99 41.6172 1150.47 42.168 1144.47 45.698L1145.48 47.4219ZM1159.85 46.1541C1164.04 48.4847 1166.25 52.7723 1166.25 59.36H1168.25C1168.25 52.2943 1165.84 47.1952 1160.82 44.4058L1159.85 46.1541ZM1166.25 59.36V95.2H1168.25V59.36H1166.25ZM1166.75 94.333L1144.47 107.133L1145.47 108.867L1167.74 96.067L1166.75 94.333ZM1145.97 108V72.16H1143.97V108H1145.97ZM1144.47 71.2945L1089.18 103.294L1090.18 105.026L1145.47 73.0255L1144.47 71.2945ZM1088.68 104.16V165.6H1090.68V104.16H1088.68ZM1090.18 166.466L1145.47 134.466L1144.47 132.734L1089.18 164.734L1090.18 166.466ZM1145.48 134.462C1151.08 131.165 1155.81 130.863 1159.83 133.186L1160.83 131.454C1155.99 128.657 1150.47 129.208 1144.47 132.738L1145.48 134.462ZM1159.85 133.194C1164.04 135.525 1166.25 139.812 1166.25 146.4H1168.25C1168.25 139.334 1165.84 134.235 1160.82 131.446L1159.85 133.194ZM1166.25 146.4V207.84H1168.25V146.4H1166.25ZM1166.25 207.84C1166.25 212.11 1165.18 216.753 1163 221.778L1164.83 222.574C1167.09 217.359 1168.25 212.444 1168.25 207.84H1166.25ZM1162.99 221.805C1160.98 226.838 1158.29 231.537 1154.93 235.902L1156.52 237.122C1159.99 232.613 1162.76 227.754 1164.85 222.547L1162.99 221.805ZM1154.93 235.907C1151.75 240.085 1148.27 243.229 1144.48 245.369L1145.47 247.111C1149.53 244.814 1153.21 241.472 1156.52 237.117L1154.93 235.907ZM1144.47 245.374L1089.18 277.374L1090.18 279.106L1145.47 247.106L1144.47 245.374ZM1089.18 277.372C1083.4 280.677 1078.59 280.976 1074.56 278.654L1073.56 280.386C1078.41 283.184 1084.01 282.629 1090.17 279.108L1089.18 277.372ZM1074.56 278.654C1070.53 276.331 1068.41 272.045 1068.41 265.44H1066.41C1066.41 272.489 1068.71 277.589 1073.56 280.386L1074.56 278.654ZM1068.41 265.44V239.84H1066.41V265.44H1068.41ZM1067.9 240.707L1090.18 227.907L1089.18 226.173L1066.91 238.973L1067.9 240.707ZM1088.68 227.04V252.64H1090.68V227.04H1088.68ZM1090.18 253.506L1145.47 221.506L1144.47 219.774L1089.18 251.774L1090.18 253.506ZM1145.97 220.64V159.2H1143.97V220.64H1145.97ZM1144.47 158.334L1089.18 190.334L1090.18 192.066L1145.47 160.066L1144.47 158.334ZM1143.97 159.2V220.64H1145.97V159.2H1143.97ZM1145.47 219.773L1123.2 206.973L1122.2 208.707L1144.47 221.507L1145.47 219.773ZM1123.7 207.84V146.4H1121.7V207.84H1123.7ZM1122.2 147.267L1144.47 160.067L1145.47 158.333L1123.2 145.533L1122.2 147.267ZM1144.47 219.774L1089.18 251.774L1090.18 253.506L1145.47 221.506L1144.47 219.774ZM1090.18 251.773L1067.9 238.973L1066.91 240.707L1089.18 253.507L1090.18 251.773ZM1067.91 240.706L1123.2 208.706L1122.2 206.974L1066.9 238.974L1067.91 240.706ZM1122.2 208.707L1144.47 221.507L1145.47 219.773L1123.2 206.973L1122.2 208.707ZM1143.97 72.16V108H1145.97V72.16H1143.97ZM1145.47 107.133L1123.2 94.333L1122.2 96.067L1144.47 108.867L1145.47 107.133ZM1123.7 95.2V59.36H1121.7V95.2H1123.7ZM1122.2 60.227L1144.47 73.027L1145.47 71.293L1123.2 58.493L1122.2 60.227ZM1089.18 226.173L1066.91 238.973L1067.9 240.707L1090.18 227.907L1089.18 226.173ZM1067.9 238.973L1045.63 226.173L1044.63 227.907L1066.91 240.707L1067.9 238.973ZM1045.63 227.907L1067.9 215.107L1066.91 213.373L1044.63 226.173L1045.63 227.907ZM1066.91 215.107L1089.18 227.907L1090.18 226.173L1067.9 213.373L1066.91 215.107ZM1066.41 239.84V265.44H1068.41V239.84H1066.41ZM1066.41 265.44C1066.41 272.489 1068.71 277.589 1073.56 280.386L1074.56 278.654C1070.53 276.331 1068.41 272.045 1068.41 265.44H1066.41ZM1074.56 278.653L1052.29 265.853L1051.29 267.587L1073.56 280.387L1074.56 278.653ZM1052.29 265.854C1048.26 263.531 1046.13 259.245 1046.13 252.64H1044.13C1044.13 259.689 1046.44 264.789 1051.29 267.586L1052.29 265.854ZM1046.13 252.64V227.04H1044.13V252.64H1046.13ZM1044.63 227.907L1066.91 240.707L1067.9 238.973L1045.63 226.173L1044.63 227.907ZM1161.07 131.446C1156.07 128.665 1150.48 129.202 1144.47 132.738L1145.48 134.462C1151.07 131.171 1155.89 130.855 1160.1 133.194L1161.07 131.446ZM1144.47 132.734L1089.18 164.734L1090.18 166.466L1145.47 134.466L1144.47 132.734ZM1090.18 164.733L1067.9 151.933L1066.91 153.667L1089.18 166.467L1090.18 164.733ZM1067.91 153.666L1123.2 121.666L1122.2 119.934L1066.9 151.934L1067.91 153.666ZM1123.2 121.668C1128.98 118.363 1133.79 118.064 1137.82 120.386L1138.82 118.654C1133.97 115.856 1128.37 116.411 1122.2 119.932L1123.2 121.668ZM1137.82 120.387L1160.09 133.187L1161.09 131.453L1138.82 118.653L1137.82 120.387ZM1161.07 44.4058C1156.07 41.6251 1150.48 42.1624 1144.47 45.698L1145.48 47.4219C1151.07 44.1309 1155.89 43.8148 1160.1 46.1541L1161.07 44.4058ZM1144.47 45.6945L1089.18 77.6945L1090.18 79.4255L1145.47 47.4255L1144.47 45.6945ZM1089.18 77.6894C1085.12 79.9879 1081.35 83.4156 1077.88 87.9343L1079.46 89.1537C1082.81 84.7977 1086.38 81.5694 1090.17 79.4306L1089.18 77.6894ZM1077.89 87.9193C1074.41 92.2634 1071.63 97.0422 1069.55 102.253L1071.41 102.995C1073.42 97.9658 1076.1 93.3579 1079.45 89.1687L1077.89 87.9193ZM1069.55 102.242C1067.46 107.293 1066.41 112.201 1066.41 116.96H1068.41C1068.41 112.503 1069.4 107.854 1071.4 103.006L1069.55 102.242ZM1066.41 116.96V178.4H1068.41V116.96H1066.41ZM1066.41 178.4C1066.41 185.449 1068.71 190.549 1073.56 193.346L1074.56 191.614C1070.53 189.291 1068.41 185.005 1068.41 178.4H1066.41ZM1074.56 191.613L1052.29 178.813L1051.29 180.547L1073.56 193.347L1074.56 191.613ZM1052.29 178.814C1048.26 176.491 1046.13 172.205 1046.13 165.6H1044.13C1044.13 172.649 1046.44 177.749 1051.29 180.546L1052.29 178.814ZM1046.13 165.6V104.16H1044.13V165.6H1046.13ZM1046.13 104.16C1046.13 99.7027 1047.12 95.0539 1049.13 90.2063L1047.28 89.4416C1045.19 94.4928 1044.13 99.4013 1044.13 104.16H1046.13ZM1049.13 90.1954C1051.15 85.1658 1053.83 80.5579 1057.18 76.3687L1055.62 75.1193C1052.14 79.4634 1049.36 84.2422 1047.28 89.4526L1049.13 90.1954ZM1057.19 76.3537C1060.54 71.9977 1064.11 68.7694 1067.9 66.6306L1066.91 64.8894C1062.85 67.1879 1059.08 70.6156 1055.6 75.1343L1057.19 76.3537ZM1067.91 66.6255L1123.2 34.6255L1122.2 32.8945L1066.9 64.8945L1067.91 66.6255ZM1123.2 34.6282C1128.98 31.3228 1133.79 31.0235 1137.82 33.3462L1138.82 31.6138C1133.97 28.8165 1128.37 29.3706 1122.2 32.8918L1123.2 34.6282ZM1137.82 33.347L1160.09 46.147L1161.09 44.413L1138.82 31.613L1137.82 33.347ZM1251.59 104.16H1252.59C1252.59 103.803 1252.4 103.473 1252.09 103.294C1251.78 103.115 1251.4 103.115 1251.09 103.294L1251.59 104.16ZM1211.66 127.2H1210.66C1210.66 127.557 1210.85 127.887 1211.15 128.066C1211.46 128.245 1211.85 128.245 1212.15 128.066L1211.66 127.2ZM1211.66 101.6L1211.15 100.734C1210.85 100.913 1210.66 101.243 1210.66 101.6H1211.66ZM1313.54 42.72H1314.54C1314.54 42.3626 1314.35 42.0325 1314.04 41.8539C1313.73 41.6753 1313.35 41.6754 1313.04 41.8542L1313.54 42.72ZM1313.54 68.32L1314.04 69.1862C1314.35 69.0076 1314.54 68.6774 1314.54 68.32H1313.54ZM1273.61 91.36L1273.11 90.4938C1272.8 90.6724 1272.61 91.0026 1272.61 91.36H1273.61ZM1273.61 268L1274.11 268.865C1274.42 268.685 1274.61 268.356 1274.61 268H1273.61ZM1251.59 280.8H1250.59C1250.59 281.158 1250.78 281.488 1251.09 281.667C1251.4 281.845 1251.78 281.844 1252.09 281.665L1251.59 280.8ZM1251.59 104.16H1252.59C1252.59 103.802 1252.4 103.471 1252.09 103.293L1251.59 104.16ZM1251.59 280.8L1251.09 281.667C1251.4 281.845 1251.78 281.844 1252.09 281.666C1252.4 281.487 1252.59 281.157 1252.59 280.8H1251.59ZM1229.32 268H1228.32C1228.32 268.358 1228.51 268.689 1228.82 268.867L1229.32 268ZM1229.32 91.36L1229.82 90.493C1229.51 90.3151 1229.13 90.3157 1228.82 90.4945C1228.51 90.6732 1228.32 91.0031 1228.32 91.36H1229.32ZM1313.54 42.72L1314.04 43.5858C1314.35 43.4074 1314.54 43.078 1314.54 42.7213C1314.54 42.3646 1314.35 42.0347 1314.05 41.8555L1313.54 42.72ZM1211.66 101.6L1211.16 102.467C1211.47 102.645 1211.85 102.644 1212.16 102.466L1211.66 101.6ZM1189.38 88.8L1188.88 87.9336C1188.57 88.1123 1188.38 88.4429 1188.38 88.8006C1188.38 89.1584 1188.57 89.4887 1188.88 89.667L1189.38 88.8ZM1291.53 29.92L1292.03 29.0555C1291.72 28.8755 1291.34 28.8748 1291.03 29.0536L1291.53 29.92ZM1211.66 101.6H1212.66C1212.66 101.242 1212.46 100.911 1212.15 100.733L1211.66 101.6ZM1211.66 127.2L1211.16 128.067C1211.47 128.245 1211.85 128.244 1212.16 128.066C1212.46 127.887 1212.66 127.557 1212.66 127.2H1211.66ZM1189.38 114.4H1188.38C1188.38 114.758 1188.57 115.089 1188.88 115.267L1189.38 114.4ZM1189.38 88.8L1189.88 87.933C1189.57 87.7551 1189.19 87.7557 1188.88 87.9345C1188.57 88.1132 1188.38 88.4431 1188.38 88.8H1189.38ZM1251.09 103.294L1211.16 126.334L1212.15 128.066L1252.09 105.026L1251.09 103.294ZM1212.66 127.2V101.6H1210.66V127.2H1212.66ZM1212.16 102.466L1314.04 43.5858L1313.04 41.8542L1211.15 100.734L1212.16 102.466ZM1312.54 42.72V68.32H1314.54V42.72H1312.54ZM1313.04 67.4538L1273.11 90.4938L1274.11 92.2262L1314.04 69.1862L1313.04 67.4538ZM1272.61 91.36V268H1274.61V91.36H1272.61ZM1273.1 267.135L1251.09 279.935L1252.09 281.665L1274.11 268.865L1273.1 267.135ZM1252.59 280.8V104.16H1250.59V280.8H1252.59ZM1250.59 104.16V280.8H1252.59V104.16H1250.59ZM1252.09 279.933L1229.82 267.133L1228.82 268.867L1251.09 281.667L1252.09 279.933ZM1230.32 268V91.36H1228.32V268H1230.32ZM1228.82 92.227L1251.09 105.027L1252.09 103.293L1229.82 90.493L1228.82 92.227ZM1313.04 41.8542L1211.15 100.734L1212.16 102.466L1314.04 43.5858L1313.04 41.8542ZM1212.15 100.733L1189.88 87.933L1188.88 89.667L1211.16 102.467L1212.15 100.733ZM1189.88 89.6664L1292.03 30.7863L1291.03 29.0536L1188.88 87.9336L1189.88 89.6664ZM1291.02 30.7845L1313.04 43.5845L1314.05 41.8555L1292.03 29.0555L1291.02 30.7845ZM1210.66 101.6V127.2H1212.66V101.6H1210.66ZM1212.15 126.333L1189.88 113.533L1188.88 115.267L1211.16 128.067L1212.15 126.333ZM1190.38 114.4V88.8H1188.38V114.4H1190.38ZM1188.88 89.667L1211.16 102.467L1212.15 100.733L1189.88 87.933L1188.88 89.667Z" fill="#36454F"/>
</g>
<defs>
<filter id="filter0_d_13_8" x="0.132812" y="0" width="1325.41" height="303.36" filterUnits="userSpaceOnUse" color-interpolation-filters="sRGB">
<feFlood flood-opacity="0" result="BackgroundImageFix"/>
<feColorMatrix in="SourceAlpha" type="matrix" values="0 0 0 0 0 0 0 0 0 0 0 0 0 0 0 0 0 0 127 0" result="hardAlpha"/>
<feOffset dx="-4" dy="4"/>
<feGaussianBlur stdDeviation="8"/>
<feComposite in2="hardAlpha" operator="out"/>
<feColorMatrix type="matrix" values="0 0 0 0 1 0 0 0 0 1 0 0 0 0 1 0 0 0 0.25 0"/>
<feBlend mode="normal" in2="BackgroundImageFix" result="effect1_dropShadow_13_8"/>
<feBlend mode="normal" in="SourceGraphic" in2="effect1_dropShadow_13_8" result="shape"/>
</filter>
</defs>
</svg>
